<svg width="344" height="233" viewBox="0 0 344 233" fill="none" xmlns="http://www.w3.org/2000/svg">
<path opacity="0.05" d="M44.7217 232.998C29.469 233.154 6.70723 224.721 10.54 205.826C13.1212 193.02 2.32697 180.996 0.371491 168.112C-1.89686 153.277 6.39435 137.504 20.552 129.774C25.558 127.041 31.5027 125.089 34.9443 120.717C45.6603 107.443 27.6699 90.8897 34.5532 73.0871C38.5424 62.8585 50.197 57.2366 65.7626 58.1736C81.7193 59.1887 97.0502 56.2216 99.0057 41.7765C100.648 30.1424 100.492 21.9438 112.85 11.9494C133.344 -4.68193 184.577 -6.86821 194.98 24.3644C198.031 33.4218 206.635 53.2545 236.593 36.467C259.902 23.3493 315.125 38.4971 297.447 76.2885C290.486 91.202 304.174 95.965 325.372 103.695C341.25 109.473 354.547 138.285 322.008 163.037C317.315 166.551 328.266 176.623 332.802 180.293C358.928 201.375 334.367 232.451 309.806 232.998C309.806 232.998 59.9744 232.842 44.7217 232.998ZM80.8589 30.8451C72.1766 28.8931 69.4389 37.8724 69.7518 44.3532C69.83 45.6025 69.9082 46.9299 70.4558 48.023C71.3162 49.5846 73.037 50.5997 74.7578 51.0682C77.5737 51.849 80.7025 51.6928 83.5966 51.0682C85.4738 50.6778 87.3511 50.0531 88.6808 48.7258C93.9997 43.4162 87.3511 32.2506 80.8589 30.8451ZM229.084 27.0191C228.928 29.2835 227.129 31.2355 225.017 32.1725C222.905 33.1875 220.48 33.4218 218.133 33.578C214.77 33.8122 210.859 33.8122 208.591 31.3917C207.026 29.752 206.635 27.2534 206.948 25.0671C207.887 19.4452 211.485 13.9014 218.055 14.6042C223.061 15.2288 229.319 22.2562 229.084 27.0191ZM237.297 13.511C236.515 14.0576 235.42 14.2138 234.481 13.9795C234.012 13.9014 233.464 13.6672 233.073 13.3549C230.257 11.3248 231.352 7.49877 234.95 7.88918C237.766 8.2015 240.504 11.4028 237.297 13.511ZM322.399 83.7843C323.338 85.1117 324.042 86.7514 323.494 88.2349C323.103 89.3281 322.086 90.1089 321.07 90.5774C318.879 91.5924 316.22 91.3582 313.952 90.4212C311.683 89.5623 309.728 88.0788 307.851 86.5172C306.99 85.8144 306.208 85.1117 305.739 84.1747C305.426 83.472 305.348 82.6912 305.348 81.9884C305.269 80.661 305.426 79.3337 305.817 78.0844C306.364 76.4447 307.381 74.9611 308.398 73.6337C309.962 71.6036 312.231 69.1831 315.203 69.6516C317.002 69.9639 317.393 70.979 317.471 72.6187C317.471 74.4145 317.08 76.1323 317.784 77.9282C318.567 80.2706 320.991 81.8323 322.399 83.7843ZM14.6856 122.2C11.7915 124.621 6.86367 124.23 4.36066 121.341C-4.39987 111.191 3.34381 86.2048 19.6916 89.7966C25.7927 91.124 30.4076 97.917 27.6699 103.851C26.1056 107.209 21.9599 108.927 20.0045 112.05C17.9708 115.329 17.8143 119.624 14.6856 122.2Z" fill="white"/>
</svg>
