<svg width="22" height="22" viewBox="0 0 22 22" fill="none" xmlns="http://www.w3.org/2000/svg">
<path d="M6.05094 10.8908H7.86606V12.7059H6.05094V10.8908ZM18.7568 5.44544V18.1513C18.7568 18.6327 18.5656 19.0944 18.2252 19.4348C17.8848 19.7752 17.4231 19.9664 16.9417 19.9664H4.23581C3.22842 19.9664 2.42068 19.1496 2.42068 18.1513V5.44544C2.42068 4.96404 2.61192 4.50235 2.95232 4.16195C3.29272 3.82155 3.75441 3.63031 4.23581 3.63031H5.14337V1.81519H6.9585V3.63031H14.219V1.81519H16.0341V3.63031H16.9417C17.4231 3.63031 17.8848 3.82155 18.2252 4.16195C18.5656 4.50235 18.7568 4.96404 18.7568 5.44544ZM4.23581 7.26056H16.9417V5.44544H4.23581V7.26056ZM16.9417 18.1513V9.07569H4.23581V18.1513H16.9417ZM13.3114 12.7059V10.8908H15.1266V12.7059H13.3114ZM9.68119 12.7059V10.8908H11.4963V12.7059H9.68119ZM6.05094 14.5211H7.86606V16.3362H6.05094V14.5211ZM13.3114 16.3362V14.5211H15.1266V16.3362H13.3114ZM9.68119 16.3362V14.5211H11.4963V16.3362H9.68119Z" fill="black" fill-opacity="0.4"/>
</svg>
