<svg width="16" height="16" viewBox="0 0 16 16" fill="none" xmlns="http://www.w3.org/2000/svg">
<path d="M4.44486 8.00004H5.7782V9.33337H4.44486V8.00004ZM13.7782 4.00004V13.3334C13.7782 13.687 13.6377 14.0261 13.3877 14.2762C13.1376 14.5262 12.7985 14.6667 12.4449 14.6667H3.11153C2.37153 14.6667 1.7782 14.0667 1.7782 13.3334V4.00004C1.7782 3.64642 1.91867 3.30728 2.16872 3.05723C2.41877 2.80718 2.75791 2.66671 3.11153 2.66671H3.7782V1.33337H5.11153V2.66671H10.4449V1.33337H11.7782V2.66671H12.4449C12.7985 2.66671 13.1376 2.80718 13.3877 3.05723C13.6377 3.30728 13.7782 3.64642 13.7782 4.00004ZM3.11153 5.33337H12.4449V4.00004H3.11153V5.33337ZM12.4449 13.3334V6.66671H3.11153V13.3334H12.4449ZM9.7782 9.33337V8.00004H11.1115V9.33337H9.7782ZM7.11153 9.33337V8.00004H8.44486V9.33337H7.11153ZM4.44486 10.6667H5.7782V12H4.44486V10.6667ZM9.7782 12V10.6667H11.1115V12H9.7782ZM7.11153 12V10.6667H8.44486V12H7.11153Z" fill="white"/>
</svg>
