<svg width="88" height="88" viewBox="0 0 88 88" fill="none" xmlns="http://www.w3.org/2000/svg">
<path d="M14.9234 54.7323C14.6732 55.0044 14.4666 55.3136 14.3111 55.649C14.2707 55.7333 14.2267 55.8067 14.1937 55.8947C14.1675 55.9421 14.1443 55.9911 14.1241 56.0413L7.52407 75.8413C7.34057 76.3923 7.29055 76.9789 7.37811 77.5529C7.46568 78.127 7.68833 78.672 8.02774 79.1432C8.36715 79.6143 8.8136 79.9981 9.33036 80.263C9.84711 80.5279 10.4194 80.6662 11.0001 80.6667C11.3938 80.6661 11.7848 80.6029 12.1587 80.4797L31.9587 73.8797C32.0064 73.8797 32.0431 73.832 32.0907 73.8173C32.1384 73.8027 32.2411 73.7403 32.3181 73.7037C32.6666 73.546 32.9873 73.3331 33.2677 73.073C33.3044 73.04 33.3557 73.029 33.3887 72.9923L79.5887 26.7923C80.2761 26.1047 80.6623 25.1723 80.6623 24.2C80.6623 23.2277 80.2761 22.2953 79.5887 21.6077L66.3887 8.40766C65.7011 7.72026 64.7687 7.33411 63.7964 7.33411C62.8241 7.33411 61.8917 7.72026 61.2041 8.40766L15.0041 54.6077C14.9711 54.6333 14.9601 54.6957 14.9234 54.7323ZM63.8001 16.1847L71.8154 24.2L30.8001 65.2153L26.7924 61.2077L22.7847 57.2L63.8001 16.1847ZM19.2024 63.987L21.6077 66.3923L24.0131 68.7977L16.7971 71.203L19.2024 63.987Z" fill="white"/>
</svg>
