<svg width="360" height="352" viewBox="0 0 360 352" fill="none" xmlns="http://www.w3.org/2000/svg">
<g clip-path="url(#clip0_3_4602)">
<path d="M21.1051 151.921C77.3292 144.207 135.253 154.401 168.221 188.296C200.982 222.118 208.709 279.833 188.088 321.926C167.545 363.827 118.653 390.106 77.2255 389.85C35.7983 389.594 2.12028 362.683 -33.7671 328.424C-69.4479 294.237 -107.26 252.51 -98.8008 218.871C-90.3414 185.233 -35.4035 159.755 21.1051 151.921Z" fill="white" fill-opacity="0.05"/>
<path d="M15.5556 159.232C81.8087 125.047 159.251 112.467 217.554 140.362C275.562 168.257 314.431 236.901 310.014 298.434C305.597 359.694 192.325 359.3 140.5 377.077C88.6753 394.853 93.1307 385.112 31 358.037C-30.8363 330.962 -20.5219 273.218 -27 227.546C-33.478 181.875 -50.992 193.691 15.5556 159.232Z" fill="white" fill-opacity="0.05"/>
<path d="M-24 124.918C-24 54.3325 -29.5 61.7626 -4.06401e-05 61.7626C58.0083 89.6577 75.1109 116.485 70.6941 178.018C66.2772 239.278 0.500075 286.522 -24 298.132C-23.9999 260.517 -24.0001 286.987 -23.9999 260.517C-23.9998 193.25 -24 236.834 -23.9999 206.185C-24 150.459 -24 175.536 -24 124.918Z" fill="white" fill-opacity="0.05"/>
</g>
<defs>
<clipPath id="clip0_3_4602">
<rect width="360" height="352" fill="white"/>
</clipPath>
</defs>
</svg>
