<svg width="39" height="39" viewBox="0 0 39 39" fill="none" xmlns="http://www.w3.org/2000/svg">
<path d="M39 19.4902C38.9993 22.9205 38.0938 26.2899 36.3748 29.2583C34.6559 32.2268 32.1842 34.6893 29.2094 36.3973C26.2346 38.1053 22.8619 38.9984 19.4317 38.9864C16.0014 38.9743 12.635 38.0577 9.67228 36.3289L10.4682 37.0502L6.71628 34.5093L4.1195 31.4787C2.21112 29.0307 0.91492 26.1622 0.33876 23.1122C-0.2374 20.0621 -0.0768688 16.9185 0.807002 13.9429C1.69087 10.9674 3.27252 8.24597 5.42037 6.00503C7.56821 3.76409 10.2201 2.06846 13.1555 1.0592C16.0909 0.0499469 19.2248 -0.243748 22.2966 0.202552C25.3684 0.648852 28.2892 1.82224 30.816 3.6251C33.3428 5.42796 35.4025 7.80815 36.8239 10.5677C38.2452 13.3272 38.987 16.3862 38.9876 19.4902H39Z" fill="white"/>
<path d="M16.1019 26.0565C16.1019 26.0565 10.7419 26.1653 8.01832 30.6393C8.01832 30.6393 7.45247 33.7193 7.63901 35.0811L10.4807 37.0564C12.5451 38.2098 15.6448 39.0928 20.0535 38.8938C28.3671 38.5238 32.1104 34.3111 32.1104 34.3111C32.1104 34.3111 31.2305 28.3448 26.312 26.9892C21.3935 25.6337 16.1019 26.0565 16.1019 26.0565Z" fill="#68E1FD"/>
<path d="M27.7546 18.9244C28.4293 15.4795 29.0355 10.163 26.6633 9.07487L25.1088 9.00336C25.1088 9.00336 23.9678 6.36066 19.3974 6.78971C14.8271 7.21876 10.2195 11.0709 12.3026 17.3294C13.3845 20.5753 11.4631 25.2979 11.4631 25.2979L18.1849 25.273L28.5629 24.9435C27.6341 23.0821 27.3498 20.9649 27.7546 18.9244Z" fill="#404040"/>
<path d="M26.7348 13.6234C26.7348 13.6234 28.053 21.965 24.7388 23.0345C24.3774 23.2498 23.9757 23.3884 23.5586 23.4419C23.1414 23.4954 22.7177 23.4626 22.3137 23.3454V25.985C22.3137 25.985 18.9653 28.5158 16.22 25.8047V18.9959C16.22 18.9959 16.5309 14.8484 17.361 15.2899C17.5506 15.3925 19.2264 15.2184 19.5 12.1808C19.5 12.1808 23.349 10.4677 25.1305 11.646C26.912 12.8244 26.7348 13.6234 26.7348 13.6234Z" fill="#F7AF87"/>
<path d="M22.3137 23.3548C22.3137 23.3548 20.2835 22.82 19.5342 21.8935C19.5342 21.8935 20.5664 25.9571 22.3137 25.9944V23.3548Z" fill="url(#paint0_linear_19_4153)"/>
<path d="M23.9771 11.2046C22.948 11.2046 21.8287 11.3507 21.1043 12.0782C20.2089 12.9767 20.2307 14.4069 19.8389 15.6132C19.5497 16.5323 18.9705 17.333 18.188 17.8953C17.7962 18.1715 17.3533 18.3668 16.8851 18.4698C16.4169 18.5729 15.9329 18.5815 15.4614 18.4953C15.3645 18.4851 15.2708 18.4553 15.1858 18.4078C15.1008 18.3602 15.0264 18.2958 14.967 18.2186C14.9015 18.0791 14.8788 17.9233 14.9017 17.7709C14.9919 16.0609 15.194 14.2919 16.077 12.8275C16.5697 12.0178 17.25 11.3385 18.0605 10.847C18.5314 10.5464 19.0617 10.3513 19.6151 10.275C20.7032 10.1506 21.7603 10.6356 22.7459 11.1113" fill="#404040"/>
<path d="M16.0676 25.7892C16.0676 25.7892 14.9079 25.9664 14.9452 26.8058C14.9825 27.6453 15.1224 30.1729 16.4251 29.5667C17.7278 28.9604 18.8315 27.126 18.8315 27.126L16.0676 25.7892Z" fill="white"/>
<path d="M22.0899 25.7892C22.0899 25.7892 23.2496 25.9664 23.2154 26.8058C23.1812 27.6453 23.0351 30.1729 21.7355 29.5667C20.4359 28.9604 19.3291 27.126 19.3291 27.126L22.0899 25.7892Z" fill="white"/>
<path d="M19.0149 31.1056C19.3703 31.1056 19.6585 30.8175 19.6585 30.4621C19.6585 30.1066 19.3703 29.8185 19.0149 29.8185C18.6595 29.8185 18.3713 30.1066 18.3713 30.4621C18.3713 30.8175 18.6595 31.1056 19.0149 31.1056Z" fill="white"/>
<path d="M19.0149 33.3814C19.3703 33.3814 19.6585 33.0933 19.6585 32.7379C19.6585 32.3824 19.3703 32.0943 19.0149 32.0943C18.6595 32.0943 18.3713 32.3824 18.3713 32.7379C18.3713 33.0933 18.6595 33.3814 19.0149 33.3814Z" fill="white"/>
<path d="M19.0149 35.6573C19.3703 35.6573 19.6585 35.3692 19.6585 35.0137C19.6585 34.6583 19.3703 34.3701 19.0149 34.3701C18.6595 34.3701 18.3713 34.6583 18.3713 35.0137C18.3713 35.3692 18.6595 35.6573 19.0149 35.6573Z" fill="white"/>
<defs>
<linearGradient id="paint0_linear_19_4153" x1="20.2057" y1="26.8463" x2="22.522" y2="17.5066" gradientUnits="userSpaceOnUse">
<stop stop-opacity="0"/>
<stop offset="0.99"/>
</linearGradient>
</defs>
</svg>
