<svg width="22" height="22" viewBox="0 0 22 22" fill="none" xmlns="http://www.w3.org/2000/svg">
<path d="M8.16806 3.63025C8.16806 2.62286 8.97579 1.81512 9.98319 1.81512C10.9906 1.81512 11.7983 2.62286 11.7983 3.63025C11.7983 4.63765 10.9906 5.44538 9.98319 5.44538C8.97579 5.44538 8.16806 4.63765 8.16806 3.63025ZM14.521 11.7983C14.521 10.5822 13.7677 9.52941 12.7059 9.07563C12.7059 8.35353 12.419 7.661 11.9084 7.1504C11.3978 6.63979 10.7053 6.35294 9.98319 6.35294C9.26108 6.35294 8.56856 6.63979 8.05795 7.1504C7.54735 7.661 7.2605 8.35353 7.2605 9.07563V15.4286H9.07562V19.9664H11.7983V15.4286H14.521V11.7983Z" fill="black" fill-opacity="0.4"/>
</svg>
