<svg width="16" height="16" viewBox="0 0 16 16" fill="none" xmlns="http://www.w3.org/2000/svg">
<path d="M6.00004 2.66668C6.00004 1.92668 6.59337 1.33334 7.33337 1.33334C8.07337 1.33334 8.66671 1.92668 8.66671 2.66668C8.66671 3.40668 8.07337 4.00001 7.33337 4.00001C6.59337 4.00001 6.00004 3.40668 6.00004 2.66668ZM10.6667 8.66668C10.6667 7.77334 10.1134 7.00001 9.33337 6.66668C9.33337 6.13624 9.12266 5.62754 8.74759 5.25246C8.37252 4.87739 7.86381 4.66668 7.33337 4.66668C6.80294 4.66668 6.29423 4.87739 5.91916 5.25246C5.54409 5.62754 5.33337 6.13624 5.33337 6.66668V11.3333H6.66671V14.6667H8.66671V11.3333H10.6667V8.66668Z" fill="white"/>
</svg>
