<svg width="16" height="16" viewBox="0 0 16 16" fill="none" xmlns="http://www.w3.org/2000/svg">
<path d="M4.99996 1.33334C5.35358 1.33334 5.69272 1.47382 5.94277 1.72387C6.19282 1.97392 6.33329 2.31305 6.33329 2.66668C6.33329 3.0203 6.19282 3.35944 5.94277 3.60949C5.69272 3.85953 5.35358 4.00001 4.99996 4.00001C4.64634 4.00001 4.3072 3.85953 4.05715 3.60949C3.8071 3.35944 3.66663 3.0203 3.66663 2.66668C3.66663 2.31305 3.8071 1.97392 4.05715 1.72387C4.3072 1.47382 4.64634 1.33334 4.99996 1.33334M3.99996 4.66668H5.99996C6.35358 4.66668 6.69272 4.80715 6.94277 5.0572C7.19282 5.30725 7.33329 5.64639 7.33329 6.00001V9.66668H6.33329V14.6667H3.66663V9.66668H2.66663V6.00001C2.66663 5.64639 2.8071 5.30725 3.05715 5.0572C3.3072 4.80715 3.64634 4.66668 3.99996 4.66668M11 1.33334C11.3536 1.33334 11.6927 1.47382 11.9428 1.72387C12.1928 1.97392 12.3333 2.31305 12.3333 2.66668C12.3333 3.0203 12.1928 3.35944 11.9428 3.60949C11.6927 3.85953 11.3536 4.00001 11 4.00001C10.6463 4.00001 10.3072 3.85953 10.0572 3.60949C9.8071 3.35944 9.66663 3.0203 9.66663 2.66668C9.66663 2.31305 9.8071 1.97392 10.0572 1.72387C10.3072 1.47382 10.6463 1.33334 11 1.33334ZM9.99996 14.6667V10.6667H7.99996L9.72663 5.60668C9.89329 5.06001 10.4 4.66668 11 4.66668C11.6 4.66668 12.1066 5.06001 12.2733 5.60668L14 10.6667H12V14.6667H9.99996Z" fill="white"/>
</svg>
