<svg width="22" height="22" viewBox="0 0 22 22" fill="none" xmlns="http://www.w3.org/2000/svg">
<path d="M6.80672 1.81512C7.28812 1.81512 7.7498 2.00636 8.09021 2.34676C8.43061 2.68716 8.62185 3.14885 8.62185 3.63025C8.62185 4.11165 8.43061 4.57334 8.09021 4.91374C7.7498 5.25414 7.28812 5.44538 6.80672 5.44538C6.32532 5.44538 5.86363 5.25414 5.52323 4.91374C5.18283 4.57334 4.99159 4.11165 4.99159 3.63025C4.99159 3.14885 5.18283 2.68716 5.52323 2.34676C5.86363 2.00636 6.32532 1.81512 6.80672 1.81512M5.44537 6.35294H8.16806C8.64947 6.35294 9.11115 6.54418 9.45155 6.88458C9.79195 7.22498 9.98319 7.68666 9.98319 8.16807V13.1597H8.62185V19.9664H4.99159V13.1597H3.63025V8.16807C3.63025 7.68666 3.82148 7.22498 4.16189 6.88458C4.50229 6.54418 4.96397 6.35294 5.44537 6.35294M14.9748 1.81512C15.4562 1.81512 15.9179 2.00636 16.2583 2.34676C16.5987 2.68716 16.7899 3.14885 16.7899 3.63025C16.7899 4.11165 16.5987 4.57334 16.2583 4.91374C15.9179 5.25414 15.4562 5.44538 14.9748 5.44538C14.4934 5.44538 14.0317 5.25414 13.6913 4.91374C13.3509 4.57334 13.1597 4.11165 13.1597 3.63025C13.1597 3.14885 13.3509 2.68716 13.6913 2.34676C14.0317 2.00636 14.4934 1.81512 14.9748 1.81512ZM13.6134 19.9664V14.521H10.8908L13.2413 7.6326C13.4682 6.8884 14.158 6.35294 14.9748 6.35294C15.7916 6.35294 16.4813 6.8884 16.7082 7.6326L19.0588 14.521H16.3361V19.9664H13.6134Z" fill="black" fill-opacity="0.4"/>
</svg>
