<svg width="22" height="22" viewBox="0 0 22 22" fill="none" xmlns="http://www.w3.org/2000/svg">
<path d="M20 11C20 13.3869 19.0518 15.6761 17.364 17.364C15.6761 19.0518 13.3869 20 11 20C8.61305 20 6.32387 19.0518 4.63604 17.364C2.94821 15.6761 2 13.3869 2 11C2 10.8011 2.07902 10.6103 2.21967 10.4697C2.36032 10.329 2.55109 10.25 2.75 10.25C2.94891 10.25 3.13968 10.329 3.28033 10.4697C3.42098 10.6103 3.5 10.8011 3.5 11C3.5 12.4834 3.93987 13.9334 4.76398 15.1668C5.58809 16.4001 6.75943 17.3614 8.12987 17.9291C9.50032 18.4968 11.0083 18.6453 12.4632 18.3559C13.918 18.0665 15.2544 17.3522 16.3033 16.3033C17.3522 15.2544 18.0665 13.918 18.3559 12.4632C18.6453 11.0083 18.4968 9.50032 17.9291 8.12987C17.3614 6.75943 16.4001 5.58809 15.1668 4.76398C13.9334 3.93987 12.4834 3.5 11 3.5C10.8011 3.5 10.6103 3.42098 10.4697 3.28033C10.329 3.13968 10.25 2.94891 10.25 2.75C10.25 2.55109 10.329 2.36032 10.4697 2.21967C10.6103 2.07902 10.8011 2 11 2C13.3862 2.00258 15.6738 2.95162 17.3611 4.63889C19.0484 6.32616 19.9974 8.61384 20 11ZM9.70775 10.25H8C7.80109 10.25 7.61032 10.329 7.46967 10.4697C7.32902 10.6103 7.25 10.8011 7.25 11C7.25 11.1989 7.32902 11.3897 7.46967 11.5303C7.61032 11.671 7.80109 11.75 8 11.75H9.70775C9.82229 11.9489 9.98108 12.1188 10.1718 12.2465C10.3626 12.3742 10.5801 12.4563 10.8077 12.4864C11.0353 12.5164 11.2667 12.4938 11.4841 12.42C11.7014 12.3463 11.8989 12.2236 12.0612 12.0612C12.2236 11.8989 12.3463 11.7014 12.42 11.4841C12.4938 11.2667 12.5164 11.0353 12.4864 10.8077C12.4563 10.5801 12.3742 10.3626 12.2465 10.1718C12.1188 9.98108 11.9489 9.82229 11.75 9.70775V7.25C11.75 7.05109 11.671 6.86032 11.5303 6.71967C11.3897 6.57902 11.1989 6.5 11 6.5C10.8011 6.5 10.6103 6.57902 10.4697 6.71967C10.329 6.86032 10.25 7.05109 10.25 7.25V9.70775C10.0253 9.83846 9.83846 10.0253 9.70775 10.25ZM3.37025 8.588C3.51859 8.588 3.66359 8.54401 3.78693 8.4616C3.91026 8.37919 4.00639 8.26206 4.06316 8.12501C4.11993 7.98797 4.13478 7.83717 4.10584 7.69168C4.0769 7.5462 4.00547 7.41256 3.90058 7.30767C3.79569 7.20278 3.66205 7.13135 3.51657 7.10241C3.37108 7.07347 3.22028 7.08832 3.08324 7.14509C2.94619 7.20186 2.82906 7.29799 2.74665 7.42132C2.66424 7.54466 2.62025 7.68966 2.62025 7.838C2.62025 8.03691 2.69927 8.22768 2.83992 8.36833C2.98057 8.50898 3.17134 8.588 3.37025 8.588ZM5.16575 5.90525C5.31409 5.90525 5.45909 5.86126 5.58243 5.77885C5.70576 5.69644 5.80189 5.57931 5.85866 5.44226C5.91543 5.30522 5.93028 5.15442 5.90134 5.00893C5.8724 4.86345 5.80097 4.72981 5.69608 4.62492C5.59119 4.52003 5.45755 4.4486 5.31207 4.41966C5.16658 4.39072 5.01578 4.40557 4.87874 4.46234C4.74169 4.51911 4.62456 4.61524 4.54215 4.73857C4.45974 4.86191 4.41575 5.00691 4.41575 5.15525C4.41575 5.35416 4.49477 5.54493 4.63542 5.68558C4.77607 5.82623 4.96684 5.90525 5.16575 5.90525ZM7.83425 4.13075C7.98259 4.13075 8.12759 4.08676 8.25093 4.00435C8.37426 3.92194 8.47039 3.80481 8.52716 3.66776C8.58393 3.53072 8.59878 3.37992 8.56984 3.23443C8.5409 3.08895 8.46947 2.95531 8.36458 2.85042C8.25969 2.74553 8.12605 2.6741 7.98057 2.64516C7.83508 2.61622 7.68428 2.63107 7.54724 2.68784C7.41019 2.74461 7.29306 2.84074 7.21065 2.96407C7.12824 3.08741 7.08425 3.23241 7.08425 3.38075C7.08425 3.57966 7.16327 3.77043 7.30392 3.91108C7.44457 4.05173 7.63534 4.13075 7.83425 4.13075Z" fill="black" fill-opacity="0.4"/>
</svg>
