<svg width="22" height="22" viewBox="0 0 22 22" fill="none" xmlns="http://www.w3.org/2000/svg">
<path d="M9.07563 2.72272L7.2605 4.53784V6.35297H4.53781C3.49412 6.35297 2.8316 7.26053 2.72269 8.1681L1.81512 17.2437C1.70622 18.1513 2.30521 19.0589 3.63025 19.0589H18.1513C19.4763 19.0589 20.0753 18.1513 19.9664 17.2437L19.0588 8.1681C18.9499 7.26053 18.2057 6.35297 17.2437 6.35297H14.521V4.53784L12.7059 2.72272H9.07563ZM9.07563 4.53784H12.7059V6.35297H9.07563V4.53784ZM9.98319 9.07566H11.7983V11.7983H14.521V13.6135H11.7983V16.3362H9.98319V13.6135H7.2605V11.7983H9.98319V9.07566Z" fill="black" fill-opacity="0.4"/>
</svg>
