<svg width="16" height="16" viewBox="0 0 16 16" fill="none" xmlns="http://www.w3.org/2000/svg">
<path d="M6.66666 2L5.33332 3.33333V4.66667H3.33332C2.56665 4.66667 2.07999 5.33333 1.99999 6L1.33332 12.6667C1.25332 13.3333 1.69332 14 2.66665 14H13.3333C14.3067 14 14.7467 13.3333 14.6667 12.6667L14 6C13.92 5.33333 13.3733 4.66667 12.6667 4.66667H10.6667V3.33333L9.33332 2H6.66666ZM6.66666 3.33333H9.33332V4.66667H6.66666V3.33333ZM7.33332 6.66667H8.66666V8.66667H10.6667V10H8.66666V12H7.33332V10H5.33332V8.66667H7.33332V6.66667Z" fill="white"/>
</svg>
