<svg width="20" height="20" viewBox="0 0 20 20" fill="none" xmlns="http://www.w3.org/2000/svg">
<g clip-path="url(#clip0_33_3790)">
<path d="M19.1667 9.99992C19.1667 15.0625 15.0626 19.1666 10 19.1666C4.93743 19.1666 0.833374 15.0625 0.833374 9.99992C0.833374 4.93731 4.93743 0.833252 10 0.833252C15.0626 0.833252 19.1667 4.93731 19.1667 9.99992ZM2.50573 9.99992C2.50573 14.1389 5.86105 17.4943 10 17.4943C14.139 17.4943 17.4944 14.1389 17.4944 9.99992C17.4944 5.86093 14.139 2.50561 10 2.50561C5.86105 2.50561 2.50573 5.86093 2.50573 9.99992Z" fill="white"/>
<path d="M9.99996 4.16675C9.53971 4.16675 9.16663 4.53984 9.16663 5.00008V10.389C9.16663 10.389 9.16663 10.6062 9.27221 10.7697C9.34288 10.9082 9.45304 11.0287 9.59779 11.1122L13.4476 13.335C13.8462 13.5651 14.3559 13.4285 14.586 13.0299C14.816 12.6313 14.6795 12.1217 14.281 11.8916L10.8333 9.90108V5.00008C10.8333 4.53985 10.4602 4.16675 9.99996 4.16675Z" fill="white"/>
</g>
<defs>
<clipPath id="clip0_33_3790">
<rect width="20" height="20" fill="white"/>
</clipPath>
</defs>
</svg>
